PathFileType	4	(X/Y/Z)	./resultDataOpenSim/trcMotMarkerGrf/sub10/qtm-02-05.trc
DataRate	CameraRate	NumFrames	NumMarkers	Units	OrigDataRate	OrigDataStartFrame	OrigNumFrames
250.000000	250.000000	7	24	m	250.000000	197	523
Frame#	Time	L.Toe.Tip			R.Toe.Tip			L.Ankle.Lat			R.Ankle.Lat			L.Ankle.Med			R.Ankle.Med			L.Heel			R.Heel			L.Knee.Lat			R.Knee.Lat			L.Knee.Med			R.Knee.Med			L.Thigh.Upper			R.Thigh.Upper			L.ASIS			R.ASIS			V.Sacral			L.Acromium			R.Acromium			C7			L.Elbow			R.Elbow			L.Wrist.Lat			R.Wrist.Lat
		X1	Y1	Z1	X2	Y2	Z2	X3	Y3	Z3	X4	Y4	Z4	X5	Y5	Z5	X6	Y6	Z6	X7	Y7	Z7	X8	Y8	Z8	X9	Y9	Z9	X10	Y10	Z10	X11	Y11	Z11	X12	Y12	Z12	X13	Y13	Z13	X14	Y14	Z14	X15	Y15	Z15	X16	Y16	Z16	X17	Y17	Z17	X18	Y18	Z18	X19	Y19	Z19	X20	Y20	Z20	X21	Y21	Z21	X22	Y22	Z22	X23	Y23	Z23	X24	Y24	Z24

197	0.784	-0.016877051	0.018142435	-0.062808295	-0.68383803	0.041282625	0.085217037	-0.1503285	0.042314878	-0.096548919	-0.73017347	0.17450185	0.12162887	-0.14963255	0.061764702	-0.012568646	-0.68608912	0.16074634	0.046955126	-0.2188292	0.011449897	-0.058643677	-0.76912558	0.19889175	0.066081991	-0.11300906	0.42836404	-0.1174674	-0.41254099	0.40477666	0.14620172	-0.1141183	0.4065662	0.0034252147	-0.37210375	0.38093617	0.025139897	-0.22117431	0.80250409	-0.18805992	-0.34046928	0.7929988	0.18207442	-0.19526278	0.91234271	-0.1069685	-0.2428587	0.88662064	0.1303962	-0.42173674	0.90490531	-0.027891539	-0.33121233	1.3677136	-0.1525312	-0.29667967	1.3600349	0.17120021	-0.40343234	1.3869295	0.015908153	-0.47892862	1.059889	-0.17688586	-0.24607616	1.0026896	0.19899711	-0.43862522	0.83028189	-0.24756651	-0.012624659	0.9386441	0.12979744
198	0.788	-0.016746585	0.018022045	-0.062828739	-0.67947913	0.043421542	0.085090392	-0.15016936	0.042201296	-0.096542133	-0.72051613	0.17841842	0.12229889	-0.1495266	0.061667612	-0.012565152	-0.67697149	0.16373635	0.047601956	-0.2186716	0.011462184	-0.058930611	-0.75910761	0.20480929	0.067567739	-0.11015148	0.42773245	-0.1175356	-0.40136671	0.40398694	0.14703968	-0.11279213	0.40569202	0.0032587805	-0.35877337	0.3787093	0.026112281	-0.21510319	0.80342105	-0.18891607	-0.33364354	0.79259388	0.18125001	-0.18966154	0.91299386	-0.10773227	-0.23650131	0.8868837	0.12937344	-0.4166318	0.90563457	-0.028267409	-0.32483389	1.368564	-0.1533041	-0.29106038	1.3606664	0.17047121	-0.39742646	1.3876028	0.014897609	-0.47230823	1.0605572	-0.1776724	-0.24289992	1.0029418	0.1978595	-0.43146726	0.83091504	-0.24805867	-0.009942146	0.93592525	0.13030949
199	0.792	-0.016628799	0.017922191	-0.062861935	-0.67451201	0.045960143	0.084933687	-0.15002358	0.042112901	-0.096537576	-0.71055903	0.18236029	0.12292644	-0.1494168	0.061586791	-0.012567931	-0.6679579	0.16702216	0.04797749	-0.21854831	0.011482924	-0.059130212	-0.74897651	0.21075045	0.069106938	-0.10732736	0.42715324	-0.11768891	-0.39019835	0.40325202	0.14789445	-0.11147121	0.40499195	0.0030233927	-0.34532052	0.37666786	0.027091742	-0.20904147	0.80439252	-0.18961846	-0.32688947	0.79223799	0.18049295	-0.18410219	0.91357826	-0.10839354	-0.22969038	0.88738586	0.12786767	-0.41153004	0.90636392	-0.028644094	-0.31843472	1.3694342	-0.15404488	-0.28552099	1.3613179	0.16980195	-0.39139909	1.3882996	0.013905365	-0.46566594	1.0612463	-0.17847284	-0.23976003	1.0032043	0.19673334	-0.42420494	0.83157526	-0.24855831	-0.0073946709	0.9331719	0.13091052
200	0.796	-0.016528709	0.017837094	-0.062908569	-0.66898345	0.048786867	0.084797521	-0.14990464	0.042035033	-0.096546066	-0.70040407	0.18631226	0.12343598	-0.14931263	0.061529588	-0.012584685	-0.65887907	0.17049447	0.048142795	-0.21849812	0.011515812	-0.059190917	-0.73842671	0.21653072	0.070152624	-0.10458902	0.42663587	-0.11792501	-0.37902567	0.40260965	0.14874937	-0.11029858	0.40444217	0.002647831	-0.33189981	0.37490501	0.028039068	-0.20303123	0.80537188	-0.19013552	-0.32020348	0.7919478	0.17981778	-0.17858747	0.91408774	-0.10894875	-0.22274413	0.88810343	0.12612542	-0.40642813	0.90709344	-0.029020559	-0.31203634	1.3703208	-0.15475687	-0.28003778	1.3619939	0.1692007	-0.38535846	1.3890232	0.012939953	-0.45899791	1.0619502	-0.17927628	-0.23665827	1.0034952	0.19563164	-0.41685312	0.8322594	-0.24905614	-0.0049733088	0.93038791	0.13159637
201	0.8	-0.016449022	0.017763677	-0.062974039	-0.66283136	0.051874366	0.084775967	-0.14981708	0.041957503	-0.096576845	-0.69010697	0.1902804	0.12378166	-0.1492116	0.061503458	-0.012625839	-0.6495132	0.17406662	0.04818531	-0.21849838	0.011559551	-0.059170478	-0.72740961	0.22199852	0.070529604	-0.1019713	0.4261787	-0.11823639	-0.36783903	0.4020907	0.14958389	-0.10938898	0.40402241	0.0020758228	-0.31861193	0.37354335	0.0289013	-0.19709923	0.80632287	-0.19047566	-0.31358564	0.79174857	0.17923295	-0.17311879	0.91450341	-0.10941452	-0.21630937	0.88894959	0.12477079	-0.40132286	0.90782334	-0.029396941	-0.30561928	1.3712273	-0.15543802	-0.27460347	1.3626896	0.16867889	-0.37931785	1.3897829	0.012001132	-0.45230203	1.0626643	-0.1800726	-0.23358303	1.003829	0.19456368	-0.40939573	0.83297044	-0.24956153	-0.0026655015	0.92757491	0.13235288
202	0.804	-0.01638951	0.017701213	-0.063060198	-0.65588864	0.055214538	0.084979392	-0.14975549	0.041881369	-0.096633176	-0.67968212	0.19429633	0.1239547	-0.14910427	0.061515805	-0.012696983	-0.63977744	0.17768204	0.048142053	-0.21851712	0.011613839	-0.059134754	-0.71613615	0.22707948	0.070396758	-0.099457442	0.42577351	-0.11861105	-0.35663397	0.40172252	0.1503745	-0.10862453	0.40373395	0.0013697306	-0.30551069	0.37269217	0.029618067	-0.19124877	0.80722266	-0.19067801	-0.30704161	0.79167638	0.17873877	-0.16769483	0.91481753	-0.10980881	-0.21065221	0.88986003	0.12410466	-0.39621342	0.90855355	-0.029775149	-0.29913912	1.3721583	-0.15608987	-0.26922864	1.3633976	0.16823331	-0.37328467	1.3905881	0.011083096	-0.44557074	1.0633861	-0.18086195	-0.23053778	1.0042141	0.19355294	-0.40182459	0.83370616	-0.25007618	-0.0004724162	0.924733	0.13317227
203	0.808	-0.01634797	0.017648977	-0.063163383	-0.64796121	0.058757993	0.085493525	-0.14971149	0.041813767	-0.096708654	-0.66917612	0.19839989	0.12395205	-0.14898303	0.061568285	-0.012796489	-0.62972051	0.18131371	0.048011573	-0.21853705	0.011679371	-0.059113488	-0.70492186	0.23172828	0.069949429	-0.097008414	0.42541009	-0.11903828	-0.34540595	0.4015392	0.15110018	-0.10773015	0.40357772	0.00067889634	-0.29262191	0.37238621	0.03016415	-0.18547261	0.80806045	-0.1907884	-0.30058187	0.79176507	0.17832806	-0.16231282	0.91504494	-0.1101344	-0.20546744	0.89079989	0.12388186	-0.39110661	0.90928297	-0.030158384	-0.29256665	1.3731102	-0.15672358	-0.2639083	1.364119	0.16783999	-0.36726119	1.3914439	0.010185131	-0.43879635	1.0641123	-0.18165801	-0.22754305	1.0046531	0.19263374	-0.3941455	0.83445872	-0.25059025	0.001597603	0.92186658	0.13405723
